<mxfile host="app.diagrams.net" modified="2023-08-28T14:41:57.797Z" agent="Mozilla/5.0 (Windows NT 10.0; Win64; x64) AppleWebKit/537.36 (KHTML, like Gecko) Chrome/116.0.0.0 Safari/537.36" etag="aean3yPNdOipFioNYAXs" version="21.6.9" type="device">
  <diagram id="C5RBs43oDa-KdzZeNtuy" name="Page-1">
    <mxGraphModel dx="1311" dy="680" grid="1" gridSize="10" guides="1" tooltips="1" connect="1" arrows="1" fold="1" page="1" pageScale="1" pageWidth="827" pageHeight="1169" math="0" shadow="0">
      <root>
        <mxCell id="WIyWlLk6GJQsqaUBKTNV-0" />
        <mxCell id="WIyWlLk6GJQsqaUBKTNV-1" parent="WIyWlLk6GJQsqaUBKTNV-0" />
        <mxCell id="yJAaKnPrRvy_6r2wejPP-0" value="&lt;b style=&quot;border-color: var(--border-color);&quot;&gt;AccessManager&lt;/b&gt;" style="swimlane;fontStyle=1;align=center;verticalAlign=top;childLayout=stackLayout;horizontal=1;startSize=26;horizontalStack=0;resizeParent=1;resizeParentMax=0;resizeLast=0;collapsible=1;marginBottom=0;whiteSpace=wrap;html=1;" vertex="1" parent="WIyWlLk6GJQsqaUBKTNV-1">
          <mxGeometry x="20" y="200" width="236" height="106" as="geometry" />
        </mxCell>
        <mxCell id="yJAaKnPrRvy_6r2wejPP-1" value="" style="line;strokeWidth=1;fillColor=none;align=left;verticalAlign=middle;spacingTop=-1;spacingLeft=3;spacingRight=3;rotatable=0;labelPosition=right;points=[];portConstraint=eastwest;strokeColor=inherit;" vertex="1" parent="yJAaKnPrRvy_6r2wejPP-0">
          <mxGeometry y="26" width="236" height="8" as="geometry" />
        </mxCell>
        <mxCell id="yJAaKnPrRvy_6r2wejPP-2" value="+ getAuthToken(User): Token&lt;br&gt;+ checkToken(Token): boolean&lt;br&gt;+ remToken(Token): void" style="text;strokeColor=none;fillColor=none;align=left;verticalAlign=top;spacingLeft=4;spacingRight=4;overflow=hidden;rotatable=0;points=[[0,0.5],[1,0.5]];portConstraint=eastwest;whiteSpace=wrap;html=1;" vertex="1" parent="yJAaKnPrRvy_6r2wejPP-0">
          <mxGeometry y="34" width="236" height="72" as="geometry" />
        </mxCell>
        <mxCell id="yJAaKnPrRvy_6r2wejPP-3" value="&lt;p style=&quot;margin:0px;margin-top:4px;text-align:center;&quot;&gt;&lt;i&gt;&amp;lt;&amp;lt;Interface&amp;gt;&amp;gt;&lt;/i&gt;&lt;br&gt;&lt;b&gt;iAccess&lt;/b&gt;&lt;/p&gt;&lt;hr size=&quot;1&quot;&gt;&lt;p style=&quot;margin:0px;margin-left:4px;&quot;&gt;&lt;/p&gt;&lt;p style=&quot;margin:0px;margin-left:4px;&quot;&gt;+ getAuthToken(User): Token&lt;br style=&quot;border-color: var(--border-color);&quot;&gt;+ checkToken(Token): boolean&lt;br style=&quot;border-color: var(--border-color);&quot;&gt;+ remToken(Token): void&lt;br&gt;&lt;/p&gt;" style="verticalAlign=top;align=left;overflow=fill;fontSize=12;fontFamily=Helvetica;html=1;whiteSpace=wrap;" vertex="1" parent="WIyWlLk6GJQsqaUBKTNV-1">
          <mxGeometry x="320" y="40" width="210" height="100" as="geometry" />
        </mxCell>
        <mxCell id="yJAaKnPrRvy_6r2wejPP-4" value="&lt;p style=&quot;margin:0px;margin-top:4px;text-align:center;&quot;&gt;&lt;i&gt;&amp;lt;&amp;lt;Interface&amp;gt;&amp;gt;&lt;/i&gt;&lt;br&gt;&lt;b&gt;iRepo&lt;/b&gt;&lt;/p&gt;&lt;hr size=&quot;1&quot;&gt;&lt;p style=&quot;margin:0px;margin-left:4px;&quot;&gt;&lt;/p&gt;&lt;p style=&quot;margin:0px;margin-left:4px;&quot;&gt;+ getUser(int): User&lt;br style=&quot;border-color: var(--border-color);&quot;&gt;+ saveUser(int):&lt;br style=&quot;border-color: var(--border-color);&quot;&gt;+ gerToken(String): Token&lt;br style=&quot;border-color: var(--border-color);&quot;&gt;+ saveToken(String):&lt;br&gt;&lt;/p&gt;" style="verticalAlign=top;align=left;overflow=fill;fontSize=12;fontFamily=Helvetica;html=1;whiteSpace=wrap;" vertex="1" parent="WIyWlLk6GJQsqaUBKTNV-1">
          <mxGeometry x="570" y="40" width="210" height="110" as="geometry" />
        </mxCell>
        <mxCell id="yJAaKnPrRvy_6r2wejPP-5" value="&lt;b style=&quot;border-color: var(--border-color);&quot;&gt;AccessRepo&lt;/b&gt;" style="swimlane;fontStyle=1;align=center;verticalAlign=top;childLayout=stackLayout;horizontal=1;startSize=26;horizontalStack=0;resizeParent=1;resizeParentMax=0;resizeLast=0;collapsible=1;marginBottom=0;whiteSpace=wrap;html=1;" vertex="1" parent="WIyWlLk6GJQsqaUBKTNV-1">
          <mxGeometry x="840" y="211" width="235" height="100" as="geometry" />
        </mxCell>
        <mxCell id="yJAaKnPrRvy_6r2wejPP-6" value="" style="line;strokeWidth=1;fillColor=none;align=left;verticalAlign=middle;spacingTop=-1;spacingLeft=3;spacingRight=3;rotatable=0;labelPosition=right;points=[];portConstraint=eastwest;strokeColor=inherit;" vertex="1" parent="yJAaKnPrRvy_6r2wejPP-5">
          <mxGeometry y="26" width="235" height="8" as="geometry" />
        </mxCell>
        <mxCell id="yJAaKnPrRvy_6r2wejPP-7" value="+ getUser(int): User&lt;br&gt;+ saveUser(int):&lt;br&gt;+ gerToken(String): Token&lt;br&gt;+ saveToken(String):" style="text;strokeColor=none;fillColor=none;align=left;verticalAlign=top;spacingLeft=4;spacingRight=4;overflow=hidden;rotatable=0;points=[[0,0.5],[1,0.5]];portConstraint=eastwest;whiteSpace=wrap;html=1;" vertex="1" parent="yJAaKnPrRvy_6r2wejPP-5">
          <mxGeometry y="34" width="235" height="66" as="geometry" />
        </mxCell>
        <mxCell id="yJAaKnPrRvy_6r2wejPP-8" style="edgeStyle=orthogonalEdgeStyle;rounded=0;orthogonalLoop=1;jettySize=auto;html=1;exitX=0.5;exitY=1;exitDx=0;exitDy=0;" edge="1" parent="WIyWlLk6GJQsqaUBKTNV-1" source="yJAaKnPrRvy_6r2wejPP-4" target="yJAaKnPrRvy_6r2wejPP-4">
          <mxGeometry relative="1" as="geometry" />
        </mxCell>
        <mxCell id="yJAaKnPrRvy_6r2wejPP-9" value="&lt;b style=&quot;border-color: var(--border-color);&quot;&gt;AccessController&lt;/b&gt;" style="swimlane;fontStyle=1;align=center;verticalAlign=top;childLayout=stackLayout;horizontal=1;startSize=26;horizontalStack=0;resizeParent=1;resizeParentMax=0;resizeLast=0;collapsible=1;marginBottom=0;whiteSpace=wrap;html=1;" vertex="1" parent="WIyWlLk6GJQsqaUBKTNV-1">
          <mxGeometry x="430" y="200" width="220" height="150" as="geometry" />
        </mxCell>
        <mxCell id="yJAaKnPrRvy_6r2wejPP-10" value="&amp;nbsp; - access: iAccess&lt;br&gt;&amp;nbsp; - repo: iRepo" style="text;strokeColor=none;fillColor=none;align=left;verticalAlign=top;spacingLeft=4;spacingRight=4;overflow=hidden;rotatable=0;points=[[0,0.5],[1,0.5]];portConstraint=eastwest;whiteSpace=wrap;html=1;" vertex="1" parent="yJAaKnPrRvy_6r2wejPP-9">
          <mxGeometry y="26" width="220" height="44" as="geometry" />
        </mxCell>
        <mxCell id="yJAaKnPrRvy_6r2wejPP-11" value="" style="line;strokeWidth=1;fillColor=none;align=left;verticalAlign=middle;spacingTop=-1;spacingLeft=3;spacingRight=3;rotatable=0;labelPosition=right;points=[];portConstraint=eastwest;strokeColor=inherit;" vertex="1" parent="yJAaKnPrRvy_6r2wejPP-9">
          <mxGeometry y="70" width="220" height="8" as="geometry" />
        </mxCell>
        <mxCell id="yJAaKnPrRvy_6r2wejPP-12" value="&amp;nbsp; + AccessContoller(iAccess, iRepo)&lt;br&gt;&amp;nbsp; + checkAuth(User): boolean&lt;br&gt;&amp;nbsp; + getAuth(User): void&lt;br&gt;&amp;nbsp; + remAuth(User): void" style="text;strokeColor=none;fillColor=none;align=left;verticalAlign=top;spacingLeft=4;spacingRight=4;overflow=hidden;rotatable=0;points=[[0,0.5],[1,0.5]];portConstraint=eastwest;whiteSpace=wrap;html=1;" vertex="1" parent="yJAaKnPrRvy_6r2wejPP-9">
          <mxGeometry y="78" width="220" height="72" as="geometry" />
        </mxCell>
        <mxCell id="yJAaKnPrRvy_6r2wejPP-13" value="Token" style="swimlane;fontStyle=1;align=center;verticalAlign=top;childLayout=stackLayout;horizontal=1;startSize=26;horizontalStack=0;resizeParent=1;resizeParentMax=0;resizeLast=0;collapsible=1;marginBottom=0;whiteSpace=wrap;html=1;" vertex="1" parent="WIyWlLk6GJQsqaUBKTNV-1">
          <mxGeometry x="300" y="440" width="230" height="110" as="geometry" />
        </mxCell>
        <mxCell id="yJAaKnPrRvy_6r2wejPP-14" value="- token: String" style="text;strokeColor=none;fillColor=none;align=left;verticalAlign=top;spacingLeft=4;spacingRight=4;overflow=hidden;rotatable=0;points=[[0,0.5],[1,0.5]];portConstraint=eastwest;whiteSpace=wrap;html=1;" vertex="1" parent="yJAaKnPrRvy_6r2wejPP-13">
          <mxGeometry y="26" width="230" height="34" as="geometry" />
        </mxCell>
        <mxCell id="yJAaKnPrRvy_6r2wejPP-15" value="" style="line;strokeWidth=1;fillColor=none;align=left;verticalAlign=middle;spacingTop=-1;spacingLeft=3;spacingRight=3;rotatable=0;labelPosition=right;points=[];portConstraint=eastwest;strokeColor=inherit;" vertex="1" parent="yJAaKnPrRvy_6r2wejPP-13">
          <mxGeometry y="60" width="230" height="8" as="geometry" />
        </mxCell>
        <mxCell id="yJAaKnPrRvy_6r2wejPP-16" value="+ Token(String):&lt;br&gt;+ getToken(): Token" style="text;strokeColor=none;fillColor=none;align=left;verticalAlign=top;spacingLeft=4;spacingRight=4;overflow=hidden;rotatable=0;points=[[0,0.5],[1,0.5]];portConstraint=eastwest;whiteSpace=wrap;html=1;" vertex="1" parent="yJAaKnPrRvy_6r2wejPP-13">
          <mxGeometry y="68" width="230" height="42" as="geometry" />
        </mxCell>
        <mxCell id="yJAaKnPrRvy_6r2wejPP-17" value="User" style="swimlane;fontStyle=1;align=center;verticalAlign=top;childLayout=stackLayout;horizontal=1;startSize=26;horizontalStack=0;resizeParent=1;resizeParentMax=0;resizeLast=0;collapsible=1;marginBottom=0;whiteSpace=wrap;html=1;" vertex="1" parent="WIyWlLk6GJQsqaUBKTNV-1">
          <mxGeometry x="570" y="440" width="230" height="180" as="geometry" />
        </mxCell>
        <mxCell id="yJAaKnPrRvy_6r2wejPP-18" value="- name: String&lt;br&gt;- login: String&lt;br&gt;- hashPassword: int&lt;br&gt;- phone: String" style="text;strokeColor=none;fillColor=none;align=left;verticalAlign=top;spacingLeft=4;spacingRight=4;overflow=hidden;rotatable=0;points=[[0,0.5],[1,0.5]];portConstraint=eastwest;whiteSpace=wrap;html=1;" vertex="1" parent="yJAaKnPrRvy_6r2wejPP-17">
          <mxGeometry y="26" width="230" height="64" as="geometry" />
        </mxCell>
        <mxCell id="yJAaKnPrRvy_6r2wejPP-19" value="" style="line;strokeWidth=1;fillColor=none;align=left;verticalAlign=middle;spacingTop=-1;spacingLeft=3;spacingRight=3;rotatable=0;labelPosition=right;points=[];portConstraint=eastwest;strokeColor=inherit;" vertex="1" parent="yJAaKnPrRvy_6r2wejPP-17">
          <mxGeometry y="90" width="230" height="8" as="geometry" />
        </mxCell>
        <mxCell id="yJAaKnPrRvy_6r2wejPP-20" value="+ User(String, String, int, String)&lt;br&gt;+ getName(): String&lt;br&gt;+ getLogin(): String&lt;br&gt;+ getHashPassword(): long&lt;br&gt;+ getPhone(): String" style="text;strokeColor=none;fillColor=none;align=left;verticalAlign=top;spacingLeft=4;spacingRight=4;overflow=hidden;rotatable=0;points=[[0,0.5],[1,0.5]];portConstraint=eastwest;whiteSpace=wrap;html=1;" vertex="1" parent="yJAaKnPrRvy_6r2wejPP-17">
          <mxGeometry y="98" width="230" height="82" as="geometry" />
        </mxCell>
        <mxCell id="yJAaKnPrRvy_6r2wejPP-21" value="" style="endArrow=classic;html=1;rounded=0;entryX=0.5;entryY=0;entryDx=0;entryDy=0;exitX=0.232;exitY=1.014;exitDx=0;exitDy=0;exitPerimeter=0;" edge="1" parent="WIyWlLk6GJQsqaUBKTNV-1" source="yJAaKnPrRvy_6r2wejPP-12" target="yJAaKnPrRvy_6r2wejPP-13">
          <mxGeometry width="50" height="50" relative="1" as="geometry">
            <mxPoint x="660" y="320" as="sourcePoint" />
            <mxPoint x="710" y="270" as="targetPoint" />
          </mxGeometry>
        </mxCell>
        <mxCell id="yJAaKnPrRvy_6r2wejPP-22" value="" style="endArrow=classic;html=1;rounded=0;entryX=0.5;entryY=0;entryDx=0;entryDy=0;exitX=0.777;exitY=1;exitDx=0;exitDy=0;exitPerimeter=0;" edge="1" parent="WIyWlLk6GJQsqaUBKTNV-1" source="yJAaKnPrRvy_6r2wejPP-12" target="yJAaKnPrRvy_6r2wejPP-17">
          <mxGeometry width="50" height="50" relative="1" as="geometry">
            <mxPoint x="660" y="320" as="sourcePoint" />
            <mxPoint x="710" y="270" as="targetPoint" />
          </mxGeometry>
        </mxCell>
        <mxCell id="yJAaKnPrRvy_6r2wejPP-23" value="" style="endArrow=open;html=1;endSize=12;startArrow=diamondThin;startSize=14;startFill=1;edgeStyle=orthogonalEdgeStyle;align=left;verticalAlign=bottom;rounded=0;entryX=0.714;entryY=1;entryDx=0;entryDy=0;entryPerimeter=0;exitX=0.75;exitY=0;exitDx=0;exitDy=0;" edge="1" parent="WIyWlLk6GJQsqaUBKTNV-1" source="yJAaKnPrRvy_6r2wejPP-9" target="yJAaKnPrRvy_6r2wejPP-4">
          <mxGeometry x="-1" y="3" relative="1" as="geometry">
            <mxPoint x="601" y="205" as="sourcePoint" />
            <mxPoint x="760" y="290" as="targetPoint" />
          </mxGeometry>
        </mxCell>
        <mxCell id="yJAaKnPrRvy_6r2wejPP-25" value="" style="endArrow=open;html=1;endSize=12;startArrow=diamondThin;startSize=14;startFill=1;edgeStyle=orthogonalEdgeStyle;align=left;verticalAlign=bottom;rounded=0;entryX=0.25;entryY=1;entryDx=0;entryDy=0;exitX=0.25;exitY=0;exitDx=0;exitDy=0;" edge="1" parent="WIyWlLk6GJQsqaUBKTNV-1" source="yJAaKnPrRvy_6r2wejPP-9" target="yJAaKnPrRvy_6r2wejPP-3">
          <mxGeometry x="-1" y="3" relative="1" as="geometry">
            <mxPoint x="605" y="210" as="sourcePoint" />
            <mxPoint x="730" y="130" as="targetPoint" />
            <Array as="points">
              <mxPoint x="485" y="160" />
              <mxPoint x="373" y="160" />
            </Array>
          </mxGeometry>
        </mxCell>
        <mxCell id="yJAaKnPrRvy_6r2wejPP-26" value="" style="endArrow=open;endSize=12;dashed=1;html=1;rounded=0;entryX=1;entryY=0.5;entryDx=0;entryDy=0;exitX=0.5;exitY=0;exitDx=0;exitDy=0;" edge="1" parent="WIyWlLk6GJQsqaUBKTNV-1" source="yJAaKnPrRvy_6r2wejPP-5" target="yJAaKnPrRvy_6r2wejPP-4">
          <mxGeometry width="160" relative="1" as="geometry">
            <mxPoint x="600" y="290" as="sourcePoint" />
            <mxPoint x="760" y="290" as="targetPoint" />
            <Array as="points">
              <mxPoint x="958" y="95" />
            </Array>
          </mxGeometry>
        </mxCell>
        <mxCell id="yJAaKnPrRvy_6r2wejPP-27" value="" style="endArrow=open;endSize=12;dashed=1;html=1;rounded=0;entryX=-0.002;entryY=0.4;entryDx=0;entryDy=0;exitX=0.576;exitY=-0.038;exitDx=0;exitDy=0;exitPerimeter=0;entryPerimeter=0;" edge="1" parent="WIyWlLk6GJQsqaUBKTNV-1" source="yJAaKnPrRvy_6r2wejPP-0" target="yJAaKnPrRvy_6r2wejPP-3">
          <mxGeometry width="160" relative="1" as="geometry">
            <mxPoint x="968" y="221" as="sourcePoint" />
            <mxPoint x="790" y="90" as="targetPoint" />
            <Array as="points">
              <mxPoint x="156" y="80" />
            </Array>
          </mxGeometry>
        </mxCell>
        <mxCell id="yJAaKnPrRvy_6r2wejPP-28" value="" style="endArrow=classic;html=1;rounded=0;exitX=0.505;exitY=1.01;exitDx=0;exitDy=0;exitPerimeter=0;entryX=0.75;entryY=0;entryDx=0;entryDy=0;" edge="1" parent="WIyWlLk6GJQsqaUBKTNV-1" source="yJAaKnPrRvy_6r2wejPP-7" target="yJAaKnPrRvy_6r2wejPP-17">
          <mxGeometry width="50" height="50" relative="1" as="geometry">
            <mxPoint x="628" y="370" as="sourcePoint" />
            <mxPoint x="705" y="458" as="targetPoint" />
          </mxGeometry>
        </mxCell>
        <mxCell id="yJAaKnPrRvy_6r2wejPP-29" value="" style="endArrow=classic;html=1;rounded=0;entryX=0.25;entryY=0;entryDx=0;entryDy=0;exitX=0.498;exitY=1.017;exitDx=0;exitDy=0;exitPerimeter=0;" edge="1" parent="WIyWlLk6GJQsqaUBKTNV-1" source="yJAaKnPrRvy_6r2wejPP-2" target="yJAaKnPrRvy_6r2wejPP-13">
          <mxGeometry width="50" height="50" relative="1" as="geometry">
            <mxPoint x="106" y="390" as="sourcePoint" />
            <mxPoint x="60" y="479" as="targetPoint" />
          </mxGeometry>
        </mxCell>
        <mxCell id="yJAaKnPrRvy_6r2wejPP-31" value="" style="endArrow=none;dashed=1;html=1;dashPattern=1 3;strokeWidth=2;rounded=0;" edge="1" parent="WIyWlLk6GJQsqaUBKTNV-1">
          <mxGeometry width="50" height="50" relative="1" as="geometry">
            <mxPoint x="280" y="682.3529411764706" as="sourcePoint" />
            <mxPoint x="280" y="10" as="targetPoint" />
          </mxGeometry>
        </mxCell>
        <mxCell id="yJAaKnPrRvy_6r2wejPP-32" value="" style="endArrow=none;dashed=1;html=1;dashPattern=1 3;strokeWidth=2;rounded=0;" edge="1" parent="WIyWlLk6GJQsqaUBKTNV-1">
          <mxGeometry width="50" height="50" relative="1" as="geometry">
            <mxPoint x="826" y="682.3529411764706" as="sourcePoint" />
            <mxPoint x="826" y="10" as="targetPoint" />
          </mxGeometry>
        </mxCell>
        <mxCell id="yJAaKnPrRvy_6r2wejPP-33" value="Адаптеры" style="text;html=1;strokeColor=none;fillColor=none;align=center;verticalAlign=middle;whiteSpace=wrap;rounded=0;" vertex="1" parent="WIyWlLk6GJQsqaUBKTNV-1">
          <mxGeometry x="100" y="10" width="60" height="30" as="geometry" />
        </mxCell>
        <mxCell id="yJAaKnPrRvy_6r2wejPP-34" value="Логика (контроллеры + модели)" style="text;html=1;strokeColor=none;fillColor=none;align=center;verticalAlign=middle;whiteSpace=wrap;rounded=0;" vertex="1" parent="WIyWlLk6GJQsqaUBKTNV-1">
          <mxGeometry x="410" y="10" width="260" height="30" as="geometry" />
        </mxCell>
        <mxCell id="yJAaKnPrRvy_6r2wejPP-35" value="Данные" style="text;html=1;strokeColor=none;fillColor=none;align=center;verticalAlign=middle;whiteSpace=wrap;rounded=0;" vertex="1" parent="WIyWlLk6GJQsqaUBKTNV-1">
          <mxGeometry x="927.5" y="10" width="60" height="30" as="geometry" />
        </mxCell>
        <mxCell id="yJAaKnPrRvy_6r2wejPP-36" value="" style="endArrow=classic;html=1;rounded=0;exitX=0.669;exitY=1.029;exitDx=0;exitDy=0;exitPerimeter=0;" edge="1" parent="WIyWlLk6GJQsqaUBKTNV-1" source="yJAaKnPrRvy_6r2wejPP-7">
          <mxGeometry width="50" height="50" relative="1" as="geometry">
            <mxPoint x="960" y="480" as="sourcePoint" />
            <mxPoint x="1000" y="410" as="targetPoint" />
          </mxGeometry>
        </mxCell>
        <mxCell id="yJAaKnPrRvy_6r2wejPP-37" value="DB" style="shape=cylinder3;whiteSpace=wrap;html=1;boundedLbl=1;backgroundOutline=1;size=15;" vertex="1" parent="WIyWlLk6GJQsqaUBKTNV-1">
          <mxGeometry x="970" y="410" width="60" height="60" as="geometry" />
        </mxCell>
        <mxCell id="yJAaKnPrRvy_6r2wejPP-38" value="" style="endArrow=classic;html=1;rounded=0;entryX=0.292;entryY=0;entryDx=0;entryDy=0;entryPerimeter=0;" edge="1" parent="WIyWlLk6GJQsqaUBKTNV-1" target="yJAaKnPrRvy_6r2wejPP-17">
          <mxGeometry width="50" height="50" relative="1" as="geometry">
            <mxPoint x="200" y="306" as="sourcePoint" />
            <mxPoint x="420" y="439" as="targetPoint" />
          </mxGeometry>
        </mxCell>
        <mxCell id="yJAaKnPrRvy_6r2wejPP-39" value="" style="endArrow=classic;html=1;rounded=0;exitX=0.123;exitY=1.012;exitDx=0;exitDy=0;exitPerimeter=0;entryX=0.75;entryY=0;entryDx=0;entryDy=0;" edge="1" parent="WIyWlLk6GJQsqaUBKTNV-1" source="yJAaKnPrRvy_6r2wejPP-7" target="yJAaKnPrRvy_6r2wejPP-13">
          <mxGeometry width="50" height="50" relative="1" as="geometry">
            <mxPoint x="886" y="281" as="sourcePoint" />
            <mxPoint x="670" y="440" as="targetPoint" />
          </mxGeometry>
        </mxCell>
      </root>
    </mxGraphModel>
  </diagram>
</mxfile>
